<?xml version="1.0" encoding="utf-8"?>
<!-- Generator: Adobe Illustrator 15.1.0, SVG Export Plug-In . SVG Version: 6.00 Build 0)  -->
<!DOCTYPE svg PUBLIC "-//W3C//DTD SVG 1.1//EN" "http://www.w3.org/Graphics/SVG/1.1/DTD/svg11.dtd">
<svg version="1.1" id="Layer_1" xmlns="http://www.w3.org/2000/svg" xmlns:xlink="http://www.w3.org/1999/xlink" x="0px" y="0px"
	 width="16px" height="64px" viewBox="-238.5 64 16 64" enable-background="new -238.5 64 16 64" xml:space="preserve">
<rect x="-238.5" y="112" fill="#FCF0E3" width="16" height="16"/>
<rect x="-238.5" y="96" fill="#FBF1E2" width="16" height="16"/>
<rect x="-238.5" y="80" fill="#E6E6E6" width="16" height="16"/>
<rect x="-238.5" y="64" fill="#F2F2F2" width="16" height="16"/>
<g>
	<g>
		<path fill="#CCCCCC" d="M-230.314,74.748h0.01c0.131-0.563,0.444-1.902,1.39-5.648c0.02-0.049,0.04-0.07,0.081-0.07h0.745
			c0.051,0,0.061,0.021,0.051,0.081l-1.763,6.474c-0.01,0.051-0.04,0.061-0.09,0.061h-0.846c-0.06,0-0.07-0.01-0.091-0.061
			c-0.302-1.248-1.198-4.893-1.389-5.719h-0.01c-0.181,0.876-1.188,4.521-1.51,5.699c-0.01,0.05-0.03,0.08-0.091,0.08h-0.826
			c-0.05,0-0.07-0.02-0.091-0.07l-1.752-6.475c-0.01-0.049,0-0.07,0.051-0.07h0.785c0.04,0,0.07,0.011,0.081,0.061
			c1.178,4.521,1.329,5.176,1.41,5.668h0.01c0.121-0.522,0.282-1.197,1.47-5.658c0.02-0.06,0.05-0.07,0.091-0.07h0.845
			c0.051,0,0.061,0.021,0.081,0.07L-230.314,74.748z"/>
		<path fill="#CCCCCC" d="M-227.451,71.457c-0.041-0.011-0.051-0.031-0.051-0.071v-0.534c0-0.039,0.021-0.061,0.051-0.061h0.645
			V70.54c0-1.399,0.635-2.185,1.661-2.185c0.291,0,0.503,0.061,0.595,0.11c0.05,0.021,0.05,0.04,0.05,0.08v0.585
			c0,0.04-0.021,0.07-0.062,0.051c-0.129-0.051-0.292-0.092-0.472-0.092c-0.454,0-0.906,0.252-0.906,1.4v0.301h0.967
			c0.049,0,0.059,0.021,0.059,0.061v0.534c0,0.051-0.02,0.071-0.059,0.071l-0.967,0.01v4.107c0,0.04-0.01,0.07-0.061,0.07h-0.735
			c-0.041,0-0.07-0.02-0.07-0.07v-4.107L-227.451,71.457z"/>
	</g>
	<path fill="#CCCCCC" d="M-223.5,65v14h-14V65H-223.5 M-222.5,64h-16v16h16V64L-222.5,64z"/>
</g>
<g>
	<g>
		<path fill="#B3B3B3" d="M-230.314,90.748h0.01c0.132-0.563,0.444-1.902,1.391-5.648c0.02-0.049,0.039-0.07,0.08-0.07h0.744
			c0.051,0,0.061,0.021,0.051,0.081l-1.762,6.474c-0.01,0.051-0.04,0.061-0.09,0.061h-0.847c-0.06,0-0.07-0.01-0.091-0.061
			c-0.302-1.248-1.197-4.893-1.389-5.719h-0.01c-0.182,0.876-1.188,4.521-1.511,5.699c-0.01,0.051-0.03,0.08-0.091,0.08h-0.826
			c-0.05,0-0.07-0.02-0.091-0.07l-1.752-6.475c-0.01-0.049,0-0.07,0.051-0.07h0.785c0.04,0,0.07,0.011,0.081,0.061
			c1.178,4.521,1.329,5.176,1.41,5.668h0.01c0.121-0.522,0.282-1.197,1.47-5.658c0.021-0.06,0.05-0.07,0.091-0.07h0.846
			c0.051,0,0.061,0.021,0.08,0.07L-230.314,90.748z"/>
		<path fill="#B3B3B3" d="M-227.451,87.457c-0.041-0.011-0.051-0.031-0.051-0.071v-0.534c0-0.039,0.021-0.061,0.051-0.061h0.646
			V86.54c0-1.399,0.635-2.185,1.661-2.185c0.291,0,0.503,0.061,0.595,0.11c0.05,0.021,0.05,0.04,0.05,0.08v0.585
			c0,0.04-0.021,0.07-0.062,0.051c-0.129-0.051-0.292-0.092-0.472-0.092c-0.454,0-0.906,0.252-0.906,1.4v0.301h0.967
			c0.049,0,0.059,0.021,0.059,0.061v0.534c0,0.051-0.02,0.071-0.059,0.071l-0.967,0.01v4.107c0,0.041-0.01,0.07-0.061,0.07h-0.735
			c-0.041,0-0.07-0.02-0.07-0.07v-4.107L-227.451,87.457z"/>
	</g>
	<path fill="#B3B3B3" d="M-223.5,81v14h-14V81H-223.5 M-222.5,80h-16v16h16V80L-222.5,80z"/>
</g>
<g>
	<g>
		<path fill="#FBB03B" d="M-230.314,106.748h0.01c0.132-0.563,0.444-1.902,1.391-5.648c0.02-0.049,0.039-0.07,0.08-0.07h0.744
			c0.051,0,0.061,0.021,0.051,0.081l-1.762,6.474c-0.01,0.051-0.04,0.061-0.09,0.061h-0.847c-0.06,0-0.07-0.01-0.091-0.061
			c-0.302-1.248-1.197-4.893-1.389-5.719h-0.01c-0.182,0.876-1.188,4.521-1.511,5.699c-0.01,0.05-0.03,0.08-0.091,0.08h-0.826
			c-0.05,0-0.07-0.02-0.091-0.07l-1.752-6.475c-0.01-0.049,0-0.07,0.051-0.07h0.785c0.04,0,0.07,0.011,0.081,0.061
			c1.178,4.521,1.329,5.176,1.41,5.668h0.01c0.121-0.522,0.282-1.197,1.47-5.658c0.021-0.06,0.05-0.07,0.091-0.07h0.846
			c0.051,0,0.061,0.021,0.08,0.07L-230.314,106.748z"/>
		<path fill="#FBB03B" d="M-227.451,103.457c-0.041-0.011-0.051-0.031-0.051-0.071v-0.534c0-0.039,0.021-0.061,0.051-0.061h0.646
			v-0.251c0-1.399,0.635-2.185,1.661-2.185c0.291,0,0.503,0.061,0.595,0.11c0.05,0.021,0.05,0.04,0.05,0.08v0.585
			c0,0.04-0.021,0.07-0.062,0.051c-0.129-0.051-0.292-0.092-0.472-0.092c-0.454,0-0.906,0.252-0.906,1.4v0.301h0.967
			c0.049,0,0.059,0.021,0.059,0.061v0.534c0,0.051-0.02,0.071-0.059,0.071l-0.967,0.01v4.107c0,0.04-0.01,0.07-0.061,0.07h-0.735
			c-0.041,0-0.07-0.02-0.07-0.07v-4.107L-227.451,103.457z"/>
	</g>
	<path fill="#FBB03B" d="M-223.5,97v14h-14V97H-223.5 M-222.5,96h-16v16h16V96L-222.5,96z"/>
</g>
<g>
	<g>
		<path fill="#E6861C" d="M-230.314,122.748h0.01c0.132-0.563,0.444-1.902,1.391-5.648c0.02-0.049,0.039-0.07,0.08-0.07h0.744
			c0.051,0,0.061,0.021,0.051,0.081l-1.762,6.474c-0.01,0.051-0.04,0.061-0.09,0.061h-0.847c-0.06,0-0.07-0.01-0.091-0.061
			c-0.302-1.248-1.197-4.893-1.389-5.719h-0.01c-0.182,0.876-1.188,4.521-1.511,5.699c-0.01,0.051-0.03,0.08-0.091,0.08h-0.826
			c-0.05,0-0.07-0.02-0.091-0.07l-1.752-6.475c-0.01-0.049,0-0.07,0.051-0.07h0.785c0.04,0,0.07,0.011,0.081,0.061
			c1.178,4.521,1.329,5.176,1.41,5.668h0.01c0.121-0.522,0.282-1.197,1.47-5.658c0.021-0.06,0.05-0.07,0.091-0.07h0.846
			c0.051,0,0.061,0.021,0.08,0.07L-230.314,122.748z"/>
		<path fill="#E6861C" d="M-227.451,119.457c-0.041-0.011-0.051-0.031-0.051-0.071v-0.534c0-0.039,0.021-0.061,0.051-0.061h0.646
			v-0.251c0-1.399,0.635-2.185,1.661-2.185c0.291,0,0.503,0.061,0.595,0.11c0.05,0.021,0.05,0.04,0.05,0.08v0.585
			c0,0.04-0.021,0.07-0.062,0.051c-0.129-0.051-0.292-0.092-0.472-0.092c-0.454,0-0.906,0.252-0.906,1.4v0.301h0.967
			c0.049,0,0.059,0.021,0.059,0.061v0.534c0,0.051-0.02,0.071-0.059,0.071l-0.967,0.01v4.107c0,0.041-0.01,0.07-0.061,0.07h-0.735
			c-0.041,0-0.07-0.02-0.07-0.07v-4.107L-227.451,119.457z"/>
	</g>
	<path fill="#E6861C" d="M-223.5,113v14h-14v-14H-223.5 M-222.5,112h-16v16h16V112L-222.5,112z"/>
</g>
</svg>
