<?xml version="1.0" encoding="iso-8859-1"?>
<!-- Generator: Adobe Illustrator 16.0.0, SVG Export Plug-In . SVG Version: 6.00 Build 0)  -->
<!DOCTYPE svg PUBLIC "-//W3C//DTD SVG 1.1//EN" "http://www.w3.org/Graphics/SVG/1.1/DTD/svg11.dtd">
<svg version="1.1" id="Layer_3" xmlns="http://www.w3.org/2000/svg" xmlns:xlink="http://www.w3.org/1999/xlink" x="0px" y="0px"
	 width="16px" height="64px" viewBox="0 0 16 64" style="enable-background:new 0 0 16 64;" xml:space="preserve">
<polygon style="fill-rule:evenodd;clip-rule:evenodd;fill:#A0A0A0;" points="15.088,15.713 1.047,15.713 0.005,14.996 
	15.995,14.996 "/>
<linearGradient id="SVGID_1_" gradientUnits="userSpaceOnUse" x1="2.75" y1="-1.5889" x2="13.2388" y2="16.5782">
	<stop  offset="0" style="stop-color:#787878"/>
	<stop  offset="1" style="stop-color:#5F6062"/>
</linearGradient>
<rect style="fill-rule:evenodd;clip-rule:evenodd;fill:url(#SVGID_1_);" width="15.99" height="14.991"/>
<path style="opacity:0.9;fill:#D9D9D9;" d="M7.854,9.383l-0.012-0.07C8.005,8.668,8.375,7,8.955,4.175
	C8.967,4.117,8.98,4.094,9.031,4.094l0.896,0.014c0.052,0,0.081,0.033,0.062,0.092L8.09,10.825c-0.021,0.049-0.04,0.059-0.085,0.059
	l-0.662,0.056c-0.057,0-0.085-0.006-0.086-0.06c-0.018-1.365-0.62-4.415-0.771-5.365h-0.01c-0.138,0.951-1.283,4-1.391,5.345
	c-0.005,0.06-0.041,0.08-0.096,0.08H4.211c-0.052,0-0.065-0.021-0.086-0.069L3.022,4.244C3.012,4.185,3.012,4.042,3.047,4.042
	l1.021-0.028c0.041,0,0.069,0.736,0.076,0.796C4.489,8.201,4.771,8.543,4.789,9.5h0.01C5.05,7.797,5.901,6.578,6.101,4.248
	c0.004-0.062-0.033-0.233,0.019-0.233h0.743c0.052,0,0.063,0.021,0.065,0.07C7.005,6.448,7.642,7.569,7.854,9.383z M10.512,6.98
	c-0.043,0-0.049-0.016-0.049-0.07V6.071c0-0.048,0.006-0.059,0.049-0.059l0.556,0.094L11.01,5.788c0-0.382,0.06-0.705,0.203-0.984
	c0.254-0.521,0.687-0.778,1.299-0.778c0.183,0,0.325-0.054,0.429-0.016c0.047,0.021,0.059,0.043,0.059,0.091v0.674
	c0,0.054-0.04,0.156-0.09,0.145c-0.079-0.021-0.357-0.014-0.438-0.013c-0.283,0.003-0.544-0.093-0.544,0.401l0.015,0.719
	l0.721,0.016C12.717,6.043,13,6.031,13,6.074v0.802c0,0.054-0.011,0.064-0.063,0.075l-0.953-0.003v3.852
	c0,0.039-0.053,0.158-0.111,0.158l-0.79-0.006c-0.048,0,0.005-0.266,0.005-0.304l0.018-3.754L10.512,6.98z"/>
<polygon style="fill-rule:evenodd;clip-rule:evenodd;fill:#A0A0A0;" points="15.088,31.713 1.047,31.713 0.005,30.996 
	15.995,30.996 "/>
<linearGradient id="SVGID_2_" gradientUnits="userSpaceOnUse" x1="2.75" y1="14.4111" x2="13.2393" y2="32.5791">
	<stop  offset="0" style="stop-color:#474747"/>
	<stop  offset="1" style="stop-color:#262626"/>
</linearGradient>
<rect y="16" style="fill-rule:evenodd;clip-rule:evenodd;fill:url(#SVGID_2_);" width="15.99" height="14.992"/>
<linearGradient id="SVGID_3_" gradientUnits="userSpaceOnUse" x1="0" y1="22.498" x2="16" y2="22.498">
	<stop  offset="0" style="stop-color:#292929"/>
	<stop  offset="0.4937" style="stop-color:#CBCBCB"/>
	<stop  offset="1" style="stop-color:#292929"/>
</linearGradient>
<path style="opacity:0.15;fill-rule:evenodd;clip-rule:evenodd;fill:url(#SVGID_3_);" d="M0,27.996h16v1H0V27.996z M0,23.996h16v1H0
	V23.996z M0,19.996h16v1H0V19.996z M0,16h15.99L16,16.891H0V16z"/>
<linearGradient id="SVGID_4_" gradientUnits="userSpaceOnUse" x1="-0.0049" y1="24.4961" x2="15.9951" y2="24.4961">
	<stop  offset="0" style="stop-color:#292929"/>
	<stop  offset="0.4937" style="stop-color:#CBCBCB"/>
	<stop  offset="1" style="stop-color:#292929"/>
</linearGradient>
<path style="opacity:0.15;fill-rule:evenodd;clip-rule:evenodd;fill:url(#SVGID_4_);" d="M-0.005,25.996h16v1h-16V25.996z
	 M-0.005,29.996h16v1h-16V29.996z M-0.005,21.996h16v1h-16V21.996z M-0.005,17.996h16v1h-16V17.996z"/>
<path style="fill:#E8E8E8;" d="M7.854,25.384l-0.012-0.07C8.005,24.669,8.375,23,8.955,20.176c0.012-0.059,0.025-0.082,0.076-0.082
	l0.896,0.015c0.052,0,0.081,0.033,0.062,0.092L8.09,26.825c-0.021,0.049-0.04,0.059-0.085,0.059l-0.662,0.056
	c-0.057,0-0.085-0.006-0.086-0.06c-0.018-1.365-0.56-4.058-0.711-5.008l0,0c-0.138,0.95-1.354,3.643-1.461,4.987
	c-0.005,0.06-0.041,0.08-0.096,0.08H4.211c-0.052,0-0.065-0.021-0.086-0.069l-1.103-6.626c-0.011-0.059-0.011-0.201,0.024-0.201
	l1.021-0.028c0.041,0,0.069,0.735,0.076,0.796c0.346,3.391,0.627,3.733,0.646,4.69h0.01c0.251-1.704,1.103-2.923,1.302-5.253
	c0.004-0.062-0.033-0.232,0.019-0.232h0.743c0.052,0,0.063,0.021,0.065,0.07C7.005,22.448,7.642,23.569,7.854,25.384z"/>
<path style="fill:#E8E8E8;" d="M10.512,22.98c-0.043,0-0.049-0.016-0.049-0.07v-0.839c0-0.048,0.006-0.059,0.049-0.059l0.556,0.094
	l-0.058-0.317c0-0.383,0.06-0.705,0.203-0.984c0.254-0.521,0.687-0.778,1.299-0.778c0.183,0,0.325-0.054,0.429-0.017
	c0.047,0.021,0.059,0.043,0.059,0.092v0.674c0,0.055-0.04,0.156-0.09,0.145c-0.079-0.021-0.357-0.014-0.438-0.013
	c-0.283,0.003-0.544-0.093-0.544,0.401l0.015,0.719l0.721,0.016c0.054,0,0.337-0.012,0.337,0.031v0.803
	c0,0.054-0.011,0.063-0.063,0.074l-0.953-0.003V26.8c0,0.039-0.053,0.158-0.111,0.158l-0.79-0.006c-0.048,0,0.005-0.266,0.005-0.304
	l0.018-3.754L10.512,22.98z"/>
<polygon style="fill-rule:evenodd;clip-rule:evenodd;fill:#A0A0A0;" points="15.088,47.713 1.047,47.713 0.005,46.996 
	15.995,46.996 "/>
<linearGradient id="SVGID_5_" gradientUnits="userSpaceOnUse" x1="2.75" y1="30.4111" x2="13.2397" y2="48.5799">
	<stop  offset="0" style="stop-color:#422400"/>
	<stop  offset="1" style="stop-color:#2D1801"/>
</linearGradient>
<rect y="32" style="opacity:0.95;fill-rule:evenodd;clip-rule:evenodd;fill:url(#SVGID_5_);" width="15.99" height="14.992"/>
<path style="opacity:0.75;fill:#FFCD37;" d="M7.854,41.384l-0.012-0.07C8.005,40.669,8.375,39,8.955,36.176
	c0.012-0.059,0.025-0.082,0.076-0.082l0.896,0.015c0.052,0,0.081,0.033,0.062,0.092L8.09,42.825
	c-0.021,0.049-0.04,0.059-0.085,0.059l-0.662,0.056c-0.057,0-0.085-0.006-0.086-0.06c-0.018-1.365-0.62-4.415-0.771-5.365h-0.01
	c-0.138,0.95-1.283,4-1.391,5.345c-0.005,0.06-0.041,0.08-0.096,0.08H4.211c-0.052,0-0.065-0.021-0.086-0.069l-1.103-6.626
	c-0.011-0.059-0.011-0.201,0.024-0.201l1.021-0.028c0.041,0,0.069,0.735,0.076,0.796c0.346,3.391,0.627,3.733,0.646,4.69h0.01
	c0.251-1.704,1.103-2.923,1.302-5.253c0.004-0.062-0.033-0.232,0.019-0.232h0.743c0.052,0,0.063,0.021,0.065,0.07
	C7.005,38.448,7.642,39.569,7.854,41.384z M10.512,38.98c-0.043,0-0.049-0.016-0.049-0.07v-0.839c0-0.048,0.006-0.059,0.049-0.059
	l0.556,0.094l-0.058-0.317c0-0.383,0.06-0.705,0.203-0.984c0.254-0.521,0.687-0.778,1.299-0.778c0.183,0,0.325-0.054,0.429-0.017
	c0.047,0.021,0.059,0.043,0.059,0.092v0.674c0,0.055-0.04,0.156-0.09,0.145c-0.079-0.021-0.357-0.014-0.438-0.013
	c-0.283,0.003-0.544-0.093-0.544,0.401l0.015,0.719l0.721,0.016c0.054,0,0.337-0.012,0.337,0.031v0.803
	c0,0.054-0.011,0.063-0.063,0.074l-0.953-0.003V42.8c0,0.039-0.053,0.158-0.111,0.158l-0.79-0.006c-0.048,0,0.005-0.266,0.005-0.304
	l0.018-3.754L10.512,38.98z"/>
<polygon style="fill-rule:evenodd;clip-rule:evenodd;fill:#A0A0A0;" points="15.088,63.713 1.047,63.713 0.005,62.996 
	15.995,62.996 "/>
<linearGradient id="SVGID_6_" gradientUnits="userSpaceOnUse" x1="2.75" y1="46.4111" x2="13.2393" y2="64.5791">
	<stop  offset="0" style="stop-color:#422400"/>
	<stop  offset="1" style="stop-color:#291601"/>
</linearGradient>
<rect y="48" style="fill-rule:evenodd;clip-rule:evenodd;fill:url(#SVGID_6_);" width="15.99" height="14.992"/>
<linearGradient id="SVGID_7_" gradientUnits="userSpaceOnUse" x1="0" y1="54.498" x2="16" y2="54.498">
	<stop  offset="0" style="stop-color:#422400"/>
	<stop  offset="0.4937" style="stop-color:#FFCD37"/>
	<stop  offset="1" style="stop-color:#422400"/>
</linearGradient>
<path style="opacity:0.1;fill-rule:evenodd;clip-rule:evenodd;fill:url(#SVGID_7_);" d="M0,59.996h16v1H0V59.996z M0,55.996h16v1H0
	V55.996z M0,51.996h16v1H0V51.996z M0,48h15.99L16,48.891H0V48z"/>
<linearGradient id="SVGID_8_" gradientUnits="userSpaceOnUse" x1="-0.0049" y1="56.4961" x2="15.9951" y2="56.4961">
	<stop  offset="0" style="stop-color:#422400"/>
	<stop  offset="0.4937" style="stop-color:#FFCD37"/>
	<stop  offset="1" style="stop-color:#422400"/>
</linearGradient>
<path style="opacity:0.1;fill-rule:evenodd;clip-rule:evenodd;fill:url(#SVGID_8_);" d="M-0.005,57.996h16v1h-16V57.996z
	 M-0.005,61.996h16v1h-16V61.996z M-0.005,53.996h16v1h-16V53.996z M-0.005,49.996h16v1h-16V49.996z"/>
<path style="fill:#FFCD37;" d="M7.854,57.384l-0.012-0.07C8.005,56.669,8.375,55,8.955,52.176c0.012-0.059,0.025-0.082,0.076-0.082
	l0.896,0.015c0.052,0,0.081,0.033,0.062,0.092L8.09,58.825c-0.021,0.049-0.04,0.059-0.085,0.059l-0.662,0.056
	c-0.057,0-0.085-0.006-0.086-0.06c-0.018-1.365-0.62-4.415-0.771-5.365h-0.01c-0.138,0.95-1.283,4-1.391,5.345
	c-0.005,0.06-0.041,0.08-0.096,0.08H4.211c-0.052,0-0.065-0.021-0.086-0.069l-1.103-6.626c-0.011-0.059-0.011-0.201,0.024-0.201
	l1.021-0.028c0.041,0,0.069,0.735,0.076,0.796c0.346,3.391,0.627,3.733,0.646,4.69h0.01c0.251-1.704,1.103-2.923,1.302-5.253
	c0.004-0.062-0.033-0.232,0.019-0.232h0.743c0.052,0,0.063,0.021,0.065,0.07C7.005,54.448,7.642,55.569,7.854,57.384z"/>
<path style="fill:#FFCD37;" d="M10.512,54.98c-0.043,0-0.049-0.016-0.049-0.07v-0.839c0-0.048,0.006-0.059,0.049-0.059l0.556,0.094
	l-0.058-0.317c0-0.383,0.06-0.705,0.203-0.984c0.254-0.521,0.687-0.778,1.299-0.778c0.183,0,0.325-0.054,0.429-0.017
	c0.047,0.021,0.059,0.043,0.059,0.092v0.674c0,0.055-0.04,0.156-0.09,0.145c-0.079-0.021-0.357-0.014-0.438-0.013
	c-0.283,0.003-0.544-0.093-0.544,0.401l0.015,0.719l0.721,0.016c0.054,0,0.337-0.012,0.337,0.031v0.803
	c0,0.054-0.011,0.063-0.063,0.074l-0.953-0.003V58.8c0,0.039-0.053,0.158-0.111,0.158l-0.79-0.006c-0.048,0,0.005-0.266,0.005-0.304
	l0.018-3.754L10.512,54.98z"/>
</svg>
