<svg xmlns="http://www.w3.org/2000/svg" version="1.1" width="24px" height="120px" viewBox="0 0 24 120"><path fill="#BBBBBB" d="M18.29 11.48c0.03-0.21 0.04-0.44 0.04-0.66 0-2.66-2.08-4.82-4.66-4.82 -2.05 0-3.79 1.36-4.42 3.26 -0.32-0.09-0.65-0.12-1-0.14C5.72 8.95 4.5 9.8 4.5 13.03c0 0.21 0.01 0.41 0.05 0.6C3.66 13.85 3 14.67 3 15.64 3 16.78 4.14 18 5.25 18l12.71-0.04c1.66 0 3.04-1.49 3.04-3.22C21 13.12 19.81 11.63 18.29 11.48L18.29 11.48zM15 13h-1l0.23-1H13v3.9l1 0.23V17h-4v-0.88l1-0.24V12H9.73L10 13H9v-2h6V13L15 13z"/><path fill="#91CC41" d="M18.29 35.48c0.03-0.21 0.04-0.44 0.04-0.66 0-2.66-2.08-4.82-4.66-4.82 -2.05 0-3.79 1.36-4.42 3.26 -0.32-0.09-0.65-0.12-1-0.14C5.72 32.95 4.5 33.8 4.5 37.03c0 0.21 0.01 0.41 0.05 0.6C3.66 37.85 3 38.67 3 39.64 3 40.78 4.14 42 5.25 42l12.71-0.04c1.66 0 3.04-1.49 3.04-3.22C21 37.12 19.81 35.63 18.29 35.48L18.29 35.48zM15 37h-1l0.23-1H13v3.9l1 0.23V41h-4v-0.88l1-0.24V36H9.73L10 37H9v-2h6V37L15 37z"/><path fill="#78B2F2" d="M18.29 59.48c0.03-0.21 0.04-0.44 0.04-0.66 0-2.66-2.08-4.82-4.66-4.82 -2.05 0-3.79 1.36-4.42 3.26 -0.32-0.09-0.65-0.12-1-0.14C5.72 56.95 4.5 57.8 4.5 61.03c0 0.21 0.01 0.41 0.05 0.6C3.66 61.85 3 62.67 3 63.64 3 64.78 4.14 66 5.25 66l12.71-0.04c1.66 0 3.04-1.49 3.04-3.22C21 61.12 19.81 59.63 18.29 59.48L18.29 59.48zM15 61h-1l0.23-1H13v3.9l1 0.23V65h-4v-0.88l1-0.24V60H9.73L10 61H9v-2h6V61L15 61z"/><path fill="#E3B551" d="M18.29 83.48c0.03-0.21 0.04-0.44 0.04-0.66 0-2.66-2.08-4.82-4.66-4.82 -2.05 0-3.79 1.36-4.42 3.26 -0.32-0.09-0.65-0.12-1-0.14C5.72 80.95 4.5 81.8 4.5 85.03c0 0.21 0.01 0.41 0.05 0.6C3.66 85.85 3 86.67 3 87.64 3 88.78 4.14 90 5.25 90l12.71-0.04c1.66 0 3.04-1.49 3.04-3.22C21 85.12 19.81 83.63 18.29 83.48L18.29 83.48zM15 85h-1l0.23-1H13v3.9l1 0.23V89h-4v-0.88l1-0.24V84H9.73L10 85H9v-2h6V85L15 85z"/><path fill="#F74687" d="M18.33 106.82c0-2.66-2.08-4.82-4.66-4.82 -2.05 0-3.79 1.36-4.42 3.26 -0.32-0.09-0.65-0.12-1-0.14 -2.53-0.17-3.75 0.68-3.75 3.91 0 0.21 0.01 0.41 0.05 0.6C3.66 109.85 3 110.67 3 111.64 3 112.78 4.14 114 5.25 114l12.71-0.04c1.66 0 3.04-1.49 3.04-3.22 0-1.62-1.19-3.11-2.71-3.26C18.32 107.27 18.33 107.04 18.33 106.82zM15 109h-1l0.23-1H13v3.9l1 0.23V113h-4v-0.88l1-0.24V108H9.73L10 109H9v-2h6V109L15 109z"/></svg>