<?xml version="1.0" encoding="utf-8"?>
<!-- Generator: Adobe Illustrator 16.2.1, SVG Export Plug-In . SVG Version: 6.00 Build 0)  -->
<!DOCTYPE svg PUBLIC "-//W3C//DTD SVG 1.1//EN" "http://www.w3.org/Graphics/SVG/1.1/DTD/svg11.dtd">
<svg version="1.1" id="Layer_1" xmlns="http://www.w3.org/2000/svg" xmlns:xlink="http://www.w3.org/1999/xlink" x="0px" y="0px"
	 width="120px" height="41px" viewBox="0 0 120 41" enable-background="new 0 0 120 41" xml:space="preserve">
<g>
	<path fill-rule="evenodd" clip-rule="evenodd" fill="#FFFFFF" d="M16.29,9.48c0.03-0.21,0.04-0.44,0.04-0.66
		c0-2.66-2.08-4.82-4.66-4.82C9.62,4,7.88,5.36,7.25,7.26c-0.32-0.09-0.65-0.12-1-0.14C3.72,6.95,2.5,7.8,2.5,11.029
		c0,0.211,0.01,0.41,0.05,0.601C1.66,11.85,1,12.67,1,13.641C1,14.779,2.14,16,3.25,16l12.71-0.04c1.66,0,3.04-1.489,3.04-3.22
		C19,11.12,17.811,9.63,16.29,9.48z M13,11h-1l0.226-1H11v3.899l1,0.225V15H8v-0.876l1-0.241V10H7.726L8,11H7V9h6V11z"/>
</g>
<g>
	<path fill-rule="evenodd" clip-rule="evenodd" fill="#91CC41" d="M36.29,9.48c0.03-0.21,0.04-0.44,0.04-0.66
		c0-2.66-2.08-4.82-4.66-4.82c-2.05,0-3.79,1.36-4.42,3.26c-0.32-0.09-0.65-0.12-1-0.14c-2.53-0.17-3.75,0.68-3.75,3.909
		c0,0.211,0.01,0.41,0.05,0.601C21.66,11.85,21,12.67,21,13.641C21,14.779,22.14,16,23.25,16l12.71-0.04
		c1.66,0,3.04-1.489,3.04-3.22C39,11.12,37.811,9.63,36.29,9.48z M33,11h-1l0.226-1H31v3.899l1,0.225V15h-4v-0.876l1-0.241V10
		h-1.274L28,11h-1V9h6V11z"/>
</g>
<g>
	<path fill-rule="evenodd" clip-rule="evenodd" fill="#78B2F2" d="M56.29,9.48c0.03-0.21,0.04-0.44,0.04-0.66
		c0-2.66-2.08-4.82-4.66-4.82c-2.05,0-3.79,1.36-4.42,3.26c-0.32-0.09-0.65-0.12-1-0.14c-2.53-0.17-3.75,0.68-3.75,3.909
		c0,0.211,0.01,0.41,0.05,0.601C41.66,11.85,41,12.67,41,13.641C41,14.779,42.14,16,43.25,16l12.71-0.04
		c1.66,0,3.04-1.489,3.04-3.22C59,11.12,57.811,9.63,56.29,9.48z M53,11h-1l0.226-1H51v3.899l1,0.225V15h-4v-0.876l1-0.241V10
		h-1.274L48,11h-1V9h6V11z"/>
</g>
<g>
	<path fill-rule="evenodd" clip-rule="evenodd" fill="#E3B551" d="M76.29,9.48c0.03-0.21,0.04-0.44,0.04-0.66
		c0-2.66-2.08-4.82-4.66-4.82c-2.05,0-3.79,1.36-4.42,3.26c-0.32-0.09-0.65-0.12-1-0.14c-2.53-0.17-3.75,0.68-3.75,3.909
		c0,0.211,0.01,0.41,0.05,0.601C61.66,11.85,61,12.67,61,13.641C61,14.779,62.14,16,63.25,16l12.71-0.04
		c1.66,0,3.04-1.489,3.04-3.22C79,11.12,77.811,9.63,76.29,9.48z M73,11h-1l0.226-1H71v3.899l1,0.225V15h-4v-0.876l1-0.241V10
		h-1.274L68,11h-1V9h6V11z"/>
</g>
<g>
	<path fill-rule="evenodd" clip-rule="evenodd" fill="#F74687" d="M96.29,9.48c0.03-0.21,0.04-0.44,0.04-0.66
		c0-2.66-2.08-4.82-4.66-4.82c-2.05,0-3.79,1.36-4.42,3.26c-0.32-0.09-0.65-0.12-1-0.14c-2.53-0.17-3.75,0.68-3.75,3.909
		c0,0.211,0.01,0.41,0.05,0.601C81.66,11.85,81,12.67,81,13.641C81,14.779,82.14,16,83.25,16l12.71-0.04
		c1.66,0,3.04-1.489,3.04-3.22C99,11.12,97.811,9.63,96.29,9.48z M93,11h-1l0.226-1H91v3.899l1,0.225V15h-4v-0.876l1-0.241V10
		h-1.274L88,11h-1V9h6V11z"/>
</g>
<g>
</g>
<g>
</g>
<g>
</g>
<g>
</g>
<g>
</g>
<g>
</g>
<g>
</g>
<g>
</g>
<g>
</g>
<g>
</g>
<g>
</g>
<g>
</g>
<g>
</g>
<g>
</g>
<g>
</g>
</svg>
